<svg width="47" height="46" viewBox="0 0 47 46" fill="none" xmlns="http://www.w3.org/2000/svg">
<path d="M23.5 0.25C19.0005 0.25 14.602 1.58426 10.8608 4.08407C7.11957 6.58387 4.20364 10.1369 2.48175 14.294C0.759857 18.451 0.309331 23.0252 1.18715 27.4383C2.06496 31.8514 4.23169 35.905 7.41333 39.0867C10.595 42.2683 14.6486 44.4351 19.0617 45.3129C23.4748 46.1907 28.049 45.7402 32.2061 44.0183C36.3631 42.2964 39.9161 39.3804 42.4159 35.6392C44.9157 31.898 46.25 27.4995 46.25 23C46.2436 16.9683 43.8447 11.1854 39.5797 6.92036C35.3146 2.65528 29.5317 0.25637 23.5 0.25ZM23.5 42.25C19.6927 42.25 15.9709 41.121 12.8053 39.0058C9.63964 36.8906 7.17232 33.8841 5.71533 30.3667C4.25834 26.8492 3.87713 22.9786 4.61989 19.2445C5.36266 15.5104 7.19604 12.0804 9.8882 9.3882C12.5804 6.69603 16.0104 4.86265 19.7445 4.11988C23.4787 3.37712 27.3492 3.75833 30.8667 5.21532C34.3841 6.67231 37.3906 9.13963 39.5058 12.3053C41.621 15.4709 42.75 19.1927 42.75 23C42.7442 28.1036 40.7142 32.9966 37.1054 36.6054C33.4966 40.2142 28.6037 42.2442 23.5 42.25ZM21.75 24.75V12.5C21.75 12.0359 21.9344 11.5908 22.2626 11.2626C22.5908 10.9344 23.0359 10.75 23.5 10.75C23.9641 10.75 24.4093 10.9344 24.7374 11.2626C25.0656 11.5908 25.25 12.0359 25.25 12.5V24.75C25.25 25.2141 25.0656 25.6593 24.7374 25.9874C24.4093 26.3156 23.9641 26.5 23.5 26.5C23.0359 26.5 22.5908 26.3156 22.2626 25.9874C21.9344 25.6593 21.75 25.2141 21.75 24.75ZM26.125 32.625C26.125 33.1442 25.9711 33.6517 25.6826 34.0834C25.3942 34.515 24.9842 34.8515 24.5046 35.0502C24.0249 35.2489 23.4971 35.3008 22.9879 35.1996C22.4787 35.0983 22.011 34.8483 21.6439 34.4812C21.2767 34.114 21.0267 33.6463 20.9254 33.1371C20.8242 32.6279 20.8761 32.1001 21.0748 31.6205C21.2735 31.1408 21.61 30.7308 22.0416 30.4424C22.4733 30.154 22.9808 30 23.5 30C24.1962 30 24.8639 30.2766 25.3562 30.7688C25.8484 31.2611 26.125 31.9288 26.125 32.625Z" fill="#089451"/>
</svg>
